<svg width="40" height="41" viewBox="0 0 40 41" fill="none" xmlns="http://www.w3.org/2000/svg">
<g id="LOGO 3 (traced)">
<g id="Gray">
<path id="Vector" d="M20.5601 6.89459V9.57459L20.7401 9.60259C21.0081 9.64259 21.4961 9.55459 21.7321 9.43059C21.9721 9.29859 22.1721 9.07459 22.2321 8.86259C22.2601 8.77859 22.2801 8.55059 22.2801 8.35459V8.00259L22.5161 7.77459C23.5801 6.73859 25.1521 7.13859 27.6681 9.08659C27.9761 9.32259 28.4521 9.69059 28.7281 9.90659C29.4401 10.4586 29.8121 10.6226 30.1001 10.5146C30.2121 10.4706 30.2801 10.2746 30.2801 9.99059C30.2801 9.62659 30.2481 9.53459 29.9601 9.04659C29.0841 7.57459 27.8001 6.31859 26.3361 5.50659C24.8281 4.67059 23.0441 4.21859 21.2521 4.21859H20.5601V6.89459Z" fill="white"/>
<path id="Vector_2" d="M24.0001 8.76664C23.6361 8.82664 22.7361 9.24264 22.5281 9.44664C22.5001 9.47464 22.4481 9.49864 22.4161 9.49864C22.3841 9.49864 22.3601 9.51864 22.3601 9.53864C22.3601 9.56264 22.3321 9.59064 22.2961 9.60664C22.1441 9.66264 21.3961 10.4026 21.0721 10.8186C20.9241 11.0066 20.7841 11.1786 20.7601 11.2066C20.7401 11.2346 20.7201 11.2706 20.7201 11.2866C20.7201 11.3066 20.6841 11.3506 20.6401 11.3906C20.5601 11.4586 20.5601 11.5066 20.5601 19.3346V27.2146L20.7321 27.2346C21.3761 27.3146 23.5521 27.2666 23.8001 27.1706C23.8321 27.1546 23.9401 27.1346 24.0401 27.1186C24.1401 27.1066 24.2521 27.0906 24.2881 27.0826C24.3281 27.0786 24.3721 27.0626 24.3841 27.0466C24.4001 27.0306 24.4641 27.0186 24.5241 27.0186C24.5841 27.0186 24.6441 27.0026 24.6561 26.9826C24.6721 26.9626 24.7521 26.9346 24.8441 26.9186C24.9321 26.9026 25.0561 26.8666 25.1121 26.8346C25.1721 26.8026 25.2521 26.7786 25.2921 26.7786C25.3281 26.7786 25.3601 26.7586 25.3601 26.7386C25.3601 26.7146 25.3801 26.6986 25.4041 26.6986C25.4801 26.6986 26.2161 26.3266 26.2801 26.2546C26.2921 26.2426 26.3721 26.1906 26.4601 26.1386C26.5481 26.0866 26.6281 26.0346 26.6401 26.0186C26.6521 26.0066 26.7761 25.8986 26.9201 25.7786C27.0601 25.6586 27.3161 25.4226 27.4881 25.2586C27.7641 24.9906 27.8841 24.9066 28.2481 24.7346C28.4081 24.6626 28.7961 24.6666 28.9601 24.7466C29.1721 24.8466 29.3201 25.0426 29.3401 25.2386C29.3441 25.2826 29.3601 25.3666 29.3761 25.4306C29.3961 25.4906 29.3921 25.5626 29.3721 25.5906C29.3521 25.6146 29.3321 25.7026 29.3241 25.7786C29.3201 25.8546 29.2881 25.9706 29.2601 26.0386C29.2321 26.1026 29.1961 26.2066 29.1841 26.2666C29.1681 26.3306 29.1401 26.3786 29.1201 26.3786C29.0961 26.3786 29.0801 26.4026 29.0801 26.4306C29.0801 26.4946 28.9321 26.7746 28.8561 26.8466C28.8241 26.8786 28.8001 26.9186 28.8001 26.9306C28.8001 26.9466 28.7601 27.0026 28.7081 27.0586C28.6561 27.1146 28.5601 27.2386 28.4921 27.3386C28.3321 27.5706 27.5681 28.2986 27.4841 28.2986C27.4641 28.2986 27.4201 28.3226 27.3921 28.3546C27.3321 28.4106 26.8041 28.7346 26.6401 28.8066C26.1721 29.0226 25.5201 29.2506 25.3201 29.2666C25.2561 29.2706 25.2001 29.2866 25.2001 29.2986C25.2001 29.3426 24.2881 29.4866 23.9001 29.5066C23.7801 29.5146 23.6801 29.5306 23.6801 29.5466C23.6801 29.5866 21.5841 29.5866 21.5441 29.5506C21.5281 29.5346 21.4761 29.5186 21.4281 29.5146C21.3801 29.5146 21.1641 29.4986 20.9521 29.4826L20.5601 29.4506V33.1546V36.8586H21.7761C22.4441 36.8586 23.0841 36.8386 23.2001 36.8186C23.3161 36.7946 23.4761 36.7306 23.5521 36.6706C23.6881 36.5666 23.6881 36.5626 23.6681 36.3226C23.6481 36.0866 23.5801 35.9146 23.4161 35.6746C23.3681 35.6106 23.3201 35.5306 23.3041 35.4986C23.2921 35.4666 23.2361 35.3666 23.1801 35.2786C23.1281 35.1906 23.0721 35.0866 23.0561 35.0466C23.0441 35.0106 23.0161 34.9786 23.0001 34.9786C22.9801 34.9786 22.9521 34.9386 22.9361 34.8866C22.9201 34.8386 22.8961 34.7906 22.8841 34.7786C22.7841 34.7066 22.3961 33.7626 22.4281 33.6706C22.4361 33.6466 22.4241 33.6146 22.4041 33.5986C22.3321 33.5546 22.3561 33.1986 22.4401 33.0066C22.5281 32.8106 22.7601 32.5906 22.9201 32.5506C22.9761 32.5386 23.0401 32.5146 23.0601 32.4986C23.1241 32.4506 23.4601 32.4226 23.9521 32.4146C24.2001 32.4106 24.4081 32.3946 24.4201 32.3786C24.4281 32.3626 24.6561 32.3346 24.9201 32.3186C25.1841 32.3026 25.4081 32.2786 25.4201 32.2586C25.4321 32.2426 25.5721 32.2146 25.7401 32.1986C25.9041 32.1826 26.0481 32.1586 26.0601 32.1386C26.0721 32.1226 26.1761 32.0946 26.3001 32.0786C26.4201 32.0666 26.5281 32.0386 26.5401 32.0186C26.5481 32.0026 26.6441 31.9746 26.7481 31.9586C26.8561 31.9426 26.9601 31.9186 26.9801 31.8986C27.0041 31.8826 27.0841 31.8546 27.1601 31.8386C27.2361 31.8226 27.3201 31.7946 27.3401 31.7786C27.3881 31.7426 27.6081 31.6826 27.6521 31.6906C27.6681 31.6946 27.6801 31.6786 27.6801 31.6586C27.6801 31.6346 27.7001 31.6186 27.7241 31.6186C27.8401 31.6186 29.1161 30.9666 29.2001 30.8626C29.2121 30.8506 29.3601 30.7426 29.5321 30.6226C29.8801 30.3866 29.9401 30.3386 30.4081 29.8746C30.8761 29.4186 31.0361 29.2226 31.4161 28.6586C31.6521 28.3106 31.6641 28.2946 31.8201 27.9906C31.8841 27.8626 31.9521 27.7506 31.9681 27.7386C31.9801 27.7266 32.0081 27.6666 32.0201 27.6066C32.0361 27.5466 32.0641 27.4986 32.0841 27.4986C32.1041 27.4986 32.1201 27.4706 32.1201 27.4346C32.1201 27.3986 32.1481 27.3186 32.1801 27.2546C32.2121 27.1906 32.2681 27.0866 32.3001 27.0226C32.3321 26.9586 32.3601 26.8706 32.3601 26.8306C32.3601 26.7906 32.3761 26.7386 32.3961 26.7186C32.4281 26.6826 32.5361 26.3946 32.5401 26.3306C32.5401 26.3186 32.5521 26.2906 32.5721 26.2746C32.5881 26.2586 32.6001 26.2066 32.6001 26.1586C32.6001 26.1106 32.6121 26.0586 32.6321 26.0426C32.6481 26.0266 32.6601 25.9986 32.6641 25.9866C32.6721 25.9026 32.7361 25.7146 32.7641 25.6786C32.7801 25.6546 32.7961 25.5986 32.7961 25.5586C32.7961 25.5146 32.8161 25.4066 32.8401 25.3186C32.9681 24.8866 33.0041 24.5426 32.9921 23.9586L32.9801 23.3586L32.8041 23.0066C32.6761 22.7426 32.5601 22.5826 32.3561 22.3786C32.2081 22.2306 32.0481 22.0946 32.0041 22.0786C31.9561 22.0666 31.9201 22.0386 31.9201 22.0226C31.9201 22.0066 31.8201 21.9506 31.7001 21.8946C31.5801 21.8426 31.4801 21.7866 31.4801 21.7706C31.4801 21.7546 31.4161 21.7306 31.3401 21.7146C31.2641 21.7026 31.2001 21.6746 31.2001 21.6586C31.2001 21.6426 31.1161 21.6146 31.0121 21.5986C30.9041 21.5826 30.8041 21.5586 30.7801 21.5386C30.6721 21.4506 28.9601 21.3386 28.9601 21.4186C28.9601 21.4346 28.7801 21.4626 28.5601 21.4786C28.3401 21.4906 28.1601 21.5186 28.1601 21.5386C28.1601 21.5546 28.0601 21.5826 27.9401 21.5986C27.8201 21.6106 27.7121 21.6386 27.7001 21.6586C27.6881 21.6746 27.6161 21.7026 27.5361 21.7186C27.4561 21.7306 27.3601 21.7586 27.3241 21.7786C27.2881 21.7986 27.0721 21.9066 26.8401 22.0186C26.6081 22.1266 26.3841 22.2426 26.3401 22.2706C26.1161 22.4106 25.6521 22.8026 25.5041 22.9786C25.3761 23.1266 24.4361 24.0626 24.2841 24.1906C24.2121 24.2506 24.1001 24.3306 24.0361 24.3666C23.9721 24.4066 23.9201 24.4506 23.9201 24.4626C23.9201 24.4786 23.8841 24.5066 23.8401 24.5186C23.7961 24.5306 23.7361 24.5666 23.7081 24.5906C23.6441 24.6506 23.3881 24.7946 23.0721 24.9466C22.9761 24.9906 22.6881 25.0626 22.5121 25.0866L22.3601 25.1066V24.0266C22.3601 22.9546 22.3601 22.9506 22.4521 22.8826C22.5001 22.8466 22.7041 22.7026 22.9001 22.5586C23.1001 22.4146 23.2801 22.2826 23.3001 22.2666C23.3241 22.2506 23.4041 22.1906 23.4801 22.1386C23.5561 22.0826 23.6401 22.0186 23.6641 21.9986C23.6881 21.9746 23.7521 21.9306 23.8001 21.8986C23.8481 21.8666 23.9241 21.8066 23.9681 21.7666C24.0161 21.7306 24.0761 21.6986 24.1001 21.6986C24.1281 21.6986 24.1601 21.6706 24.1761 21.6386C24.1881 21.6066 24.2241 21.5786 24.2561 21.5786C24.2881 21.5786 24.3201 21.5626 24.3281 21.5466C24.3361 21.5266 24.4681 21.4226 24.6201 21.3066C24.7761 21.1946 24.9201 21.0866 24.9401 21.0666C24.9641 21.0506 25.0681 20.9746 25.1801 20.8986C25.2881 20.8226 25.4001 20.7386 25.4241 20.7186C25.4481 20.6946 25.5121 20.6506 25.5601 20.6186C25.6081 20.5866 25.6841 20.5266 25.7281 20.4866C25.7761 20.4506 25.8241 20.4186 25.8361 20.4186C25.8481 20.4186 25.9201 20.3626 25.9961 20.2986C26.0681 20.2306 26.1521 20.1786 26.1841 20.1786C26.2121 20.1786 26.2401 20.1626 26.2481 20.1466C26.2601 20.1146 26.5281 19.9066 26.7201 19.7786C26.7681 19.7466 26.8361 19.6946 26.8641 19.6666C26.9201 19.6146 27.2881 19.6146 27.7601 19.6706C27.8601 19.6826 28.1641 19.7026 28.4401 19.7186C28.7161 19.7346 28.9601 19.7586 28.9801 19.7746C29.0041 19.7866 29.0561 19.7986 29.1001 19.8026C29.6481 19.8266 30.2321 19.8706 30.2801 19.8866C30.3441 19.9106 30.3521 19.9146 31.0401 19.9586C31.2921 19.9746 31.5321 20.0066 31.5721 20.0266C31.6761 20.0786 32.4361 20.0786 32.4921 20.0226C32.5161 19.9986 32.5841 19.9786 32.6441 19.9786C32.7841 19.9786 32.8121 19.9346 32.8921 19.5946C32.9961 19.1586 32.9761 18.5706 32.8481 18.0986C32.8281 18.0226 32.8041 17.9306 32.7961 17.8986C32.7801 17.8466 32.7401 17.7986 32.5761 17.6626C32.5481 17.6426 32.4601 17.6106 32.3761 17.5946C32.2881 17.5826 32.2041 17.5546 32.1801 17.5386C32.1601 17.5226 32.0241 17.4946 31.8801 17.4786C31.7361 17.4626 31.6041 17.4386 31.5801 17.4266C31.5321 17.3946 31.4881 17.3866 31.2001 17.3546C31.0801 17.3386 30.9641 17.3146 30.9401 17.2986C30.9201 17.2786 30.7561 17.2546 30.5801 17.2386C30.4041 17.2226 30.2441 17.1986 30.2201 17.1826C30.1841 17.1586 29.8921 17.1306 28.5601 17.0226C27.6521 16.9466 27.2841 16.9586 26.9081 17.0746C26.6121 17.1666 26.1801 17.4026 26.0041 17.5706C25.9721 17.5986 25.9001 17.6546 25.8441 17.6906C25.7361 17.7626 25.7161 17.7746 25.5721 17.8906C25.5281 17.9266 25.4481 17.9866 25.4001 18.0186C25.3161 18.0746 25.0241 18.2866 24.8001 18.4586C24.3001 18.8306 24.0321 19.0186 24.0001 19.0186C23.9761 19.0186 23.9601 19.0306 23.9601 19.0466C23.9601 19.0666 23.8921 19.1226 23.8081 19.1786C23.7281 19.2346 23.6361 19.3026 23.6081 19.3266C23.5801 19.3546 23.4641 19.4386 23.3481 19.5146C23.2321 19.5946 23.0881 19.7026 23.0241 19.7586C22.9601 19.8146 22.8881 19.8586 22.8681 19.8586C22.8481 19.8586 22.7961 19.8986 22.7561 19.9466C22.7121 19.9906 22.6801 20.0186 22.6801 20.0066C22.6801 19.9786 22.5401 20.0906 22.4081 20.2186C22.3561 20.2706 22.3521 20.1626 22.3801 19.2186C22.4001 18.6346 22.4161 17.7186 22.4201 17.1786C22.4201 16.6386 22.4321 16.1786 22.4481 16.1586C22.4641 16.1346 22.6161 16.0466 22.7881 15.9626C22.9601 15.8826 23.1321 15.7946 23.1681 15.7746C23.2081 15.7546 23.2601 15.7386 23.2841 15.7386C23.3081 15.7386 23.3841 15.7146 23.4521 15.6826C23.6361 15.6066 23.9921 15.5066 24.2001 15.4786C24.4361 15.4466 24.4881 15.4346 24.5601 15.4066C24.5921 15.3946 24.7361 15.3746 24.8801 15.3666C25.0241 15.3546 25.2481 15.3346 25.3801 15.3226C25.6281 15.2986 26.8921 15.3666 27.0001 15.4066C27.0321 15.4226 27.1241 15.4386 27.2001 15.4426C27.5281 15.4706 27.7601 15.5106 27.7601 15.5346C27.7601 15.5506 27.8081 15.5666 27.8721 15.5706C28.0561 15.5786 28.3401 15.6266 28.3801 15.6626C28.4041 15.6786 28.5161 15.7066 28.6321 15.7226C28.7441 15.7346 28.8401 15.7626 28.8401 15.7786C28.8401 15.7946 28.9401 15.8226 29.0601 15.8386C29.1801 15.8506 29.2801 15.8786 29.2801 15.8946C29.2801 15.9106 29.3121 15.9226 29.3521 15.9266C29.5601 15.9426 29.7841 15.9946 29.8081 16.0346C29.8481 16.0946 31.2721 16.0946 31.3121 16.0346C31.3281 16.0106 31.4001 15.9746 31.4721 15.9586C31.5401 15.9466 31.6001 15.9186 31.6001 15.8986C31.6001 15.8786 31.6321 15.8546 31.6721 15.8426C31.8081 15.7986 32.1721 15.4106 32.1961 15.2906C32.2081 15.2306 32.2481 15.1186 32.2761 15.0586C32.3121 14.9866 32.3001 14.2906 32.2601 14.1186C32.2321 13.9906 32.2241 13.9746 32.0441 13.5666C31.8641 13.1706 31.3561 12.5586 30.9001 12.1986C30.8201 12.1306 30.6921 12.0306 30.6241 11.9706C30.5561 11.9106 30.4881 11.8586 30.4761 11.8586C30.4641 11.8586 30.4161 11.8266 30.3681 11.7866C30.3241 11.7506 30.2481 11.6906 30.2001 11.6586C30.1521 11.6266 30.0801 11.5706 30.0401 11.5346C30.0001 11.5026 29.9001 11.4386 29.8241 11.3986C29.7441 11.3546 29.6801 11.3066 29.6801 11.2906C29.6801 11.2706 29.6601 11.2586 29.6361 11.2586C29.5961 11.2586 29.1321 10.9906 29.0801 10.9386C29.0521 10.9106 28.9081 10.8226 28.8401 10.7906C28.8081 10.7786 28.7161 10.7146 28.6361 10.6506C28.5561 10.5906 28.4721 10.5386 28.4521 10.5386C28.4321 10.5386 28.3401 10.4666 28.2441 10.3786C28.1521 10.2906 28.0601 10.2186 28.0441 10.2186C28.0321 10.2186 27.9881 10.1866 27.9561 10.1466C27.9201 10.1106 27.8521 10.0506 27.8041 10.0186C27.7521 9.98664 27.6801 9.93064 27.6401 9.89864C27.6001 9.86664 27.5281 9.81064 27.4801 9.77864C27.4321 9.74664 27.3681 9.69864 27.3441 9.67864C27.2881 9.62664 26.6601 9.25064 26.5201 9.19064C26.1961 9.04264 26.0361 8.97864 25.9841 8.97864C25.9521 8.97864 25.9161 8.96264 25.9041 8.94264C25.8921 8.92264 25.8121 8.89464 25.7321 8.87864C25.6481 8.86664 25.5041 8.82664 25.4081 8.79464C25.2441 8.74264 24.2681 8.72264 24.0001 8.76664ZM25.3001 11.0746C25.4121 11.0826 25.5801 11.1226 25.6801 11.1586C25.7801 11.1946 25.8921 11.2346 25.9321 11.2466C25.9681 11.2586 26.0001 11.2826 26.0001 11.3026C26.0001 11.3226 26.0201 11.3386 26.0441 11.3386C26.0921 11.3386 26.6841 11.6186 26.7201 11.6546C26.7321 11.6666 26.8121 11.7146 26.8961 11.7586C26.9841 11.8026 27.0721 11.8586 27.0961 11.8786C27.1201 11.9026 27.1841 11.9426 27.2401 11.9706C27.3601 12.0266 27.4921 12.1106 27.5201 12.1426C27.5321 12.1546 27.6201 12.2146 27.7201 12.2706C27.8761 12.3626 27.9521 12.4186 28.1881 12.6186C28.2161 12.6386 28.2561 12.6586 28.2761 12.6586C28.3001 12.6586 28.3321 12.6826 28.3481 12.7106C28.3641 12.7386 28.4601 12.8226 28.5601 12.8986C28.8681 13.1386 28.9721 13.2266 29.2601 13.5186C29.6201 13.8786 29.7241 14.0066 29.8161 14.1826C29.9241 14.3866 29.8801 14.5226 29.7001 14.5546C29.5641 14.5826 29.1921 14.5546 29.0801 14.5066C29.0161 14.4826 28.9841 14.4746 28.7721 14.4346C28.7001 14.4226 28.6401 14.3946 28.6401 14.3786C28.6401 14.3626 28.6161 14.3506 28.5921 14.3506C28.4921 14.3546 28.2801 14.2866 28.2801 14.2546C28.2801 14.2346 28.2481 14.2186 28.2081 14.2186C28.1281 14.2186 27.7001 14.0786 27.5921 14.0186C27.5561 13.9986 27.4521 13.9666 27.3601 13.9546C27.2721 13.9386 27.1881 13.9146 27.1801 13.8946C27.1681 13.8786 27.0721 13.8506 26.9681 13.8346C26.8641 13.8226 26.7641 13.7946 26.7401 13.7786C26.7201 13.7586 26.5921 13.7346 26.4601 13.7186C26.3281 13.7026 26.2001 13.6706 26.1761 13.6506C26.1481 13.6306 25.8361 13.6186 25.4761 13.6186C24.6641 13.6226 24.6681 13.6226 24.6201 13.6586C24.6001 13.6746 24.4841 13.7026 24.3721 13.7186C24.2561 13.7346 24.1521 13.7626 24.1361 13.7826C24.1241 13.8026 24.0881 13.8186 24.0521 13.8186C24.0201 13.8186 23.8561 13.8826 23.6921 13.9586C23.5281 14.0346 23.3761 14.0986 23.3561 14.0986C23.3361 14.0986 23.3201 14.1106 23.3201 14.1306C23.3201 14.1466 23.2361 14.2066 23.1321 14.2586C23.0281 14.3146 22.9001 14.3986 22.8481 14.4466C22.8001 14.4986 22.7441 14.5386 22.7281 14.5386C22.7121 14.5386 22.6121 14.6186 22.5081 14.7186C22.4001 14.8186 22.3121 14.8986 22.3081 14.8986C22.3041 14.8986 22.3041 14.5666 22.3081 14.1586C22.3121 13.6666 22.3321 13.3906 22.3641 13.3306C22.3921 13.2786 22.4601 13.1466 22.5201 13.0386C22.6801 12.7306 22.7761 12.5786 22.8121 12.5786C22.8281 12.5786 22.8401 12.5586 22.8401 12.5386C22.8401 12.5146 22.9321 12.3826 23.0441 12.2466C23.3721 11.8506 23.8001 11.4586 24.0161 11.3586C24.0601 11.3386 24.1081 11.3106 24.1201 11.2986C24.1961 11.2226 24.6441 11.0746 24.7521 11.0946C24.7761 11.0986 24.8321 11.0826 24.8721 11.0626C24.9081 11.0426 24.9761 11.0306 25.0201 11.0426C25.0641 11.0506 25.1921 11.0666 25.3001 11.0746Z" fill="white"/>
</g>
<g id="LightGray">
<path id="Vector_3" d="M17.5199 4.27875C16.0279 4.45875 14.5679 4.95075 13.3599 5.67875C12.4839 6.21075 11.5079 7.05875 10.8799 7.83475C10.5519 8.24275 9.99995 9.07075 9.83595 9.39875C9.71995 9.63875 9.71195 9.67475 9.72395 10.0188C9.73995 10.3468 9.74795 10.3948 9.83595 10.4628C9.97995 10.5788 10.2599 10.5628 10.5439 10.4188C10.6719 10.3548 11.0679 10.0748 11.4199 9.79875C11.7719 9.52275 12.2759 9.13475 12.5399 8.93475C14.9439 7.11475 16.4439 6.76675 17.4879 7.78275L17.7199 8.01075V8.36275C17.7199 8.55875 17.7399 8.78275 17.7599 8.86275C17.8159 9.05875 18.0519 9.32275 18.2759 9.43875C18.5639 9.58275 19.0999 9.66275 19.3519 9.59475L19.4399 9.57075V6.89475V4.21875L18.6919 4.22275C18.2759 4.22675 17.7519 4.25075 17.5199 4.27875Z" fill="white"/>
<path id="Vector_4" d="M14.64 8.76664C14.584 8.77864 14.524 8.79864 14.5 8.81864C14.48 8.83464 14.384 8.86264 14.292 8.87864C14.196 8.89464 14.112 8.91864 14.1 8.93864C14.088 8.95864 14.008 8.98264 13.92 8.99864C13.832 9.01464 13.76 9.04264 13.76 9.05864C13.76 9.07864 13.7 9.10664 13.632 9.11864C13.56 9.13464 13.492 9.15864 13.48 9.17464C13.468 9.18664 13.372 9.24264 13.26 9.29864C13.152 9.35464 13.036 9.42264 13.008 9.44664C12.98 9.47464 12.936 9.49864 12.916 9.49864C12.896 9.49864 12.856 9.51864 12.828 9.53864C12.652 9.68664 12.584 9.73864 12.564 9.73864C12.552 9.73864 12.484 9.79064 12.416 9.85064C12.344 9.91064 12.248 9.98664 12.2 10.0186C12.152 10.0506 12.08 10.1066 12.04 10.1386C12 10.1706 11.928 10.2266 11.88 10.2586C11.832 10.2906 11.76 10.3466 11.72 10.3786C11.68 10.4106 11.608 10.4666 11.56 10.4986C11.512 10.5306 11.448 10.5746 11.424 10.5986C11.32 10.6906 10.996 10.8986 10.96 10.8986C10.936 10.8986 10.92 10.9146 10.92 10.9386C10.92 10.9586 10.896 10.9786 10.868 10.9786C10.84 10.9786 10.724 11.0426 10.604 11.1186C10.488 11.1946 10.376 11.2586 10.356 11.2586C10.336 11.2586 10.32 11.2746 10.32 11.2946C10.32 11.3146 10.28 11.3466 10.232 11.3626C10.184 11.3746 10.12 11.4106 10.092 11.4346C10.004 11.5106 9.948 11.5546 9.7 11.7186C9.568 11.8066 9.444 11.9026 9.428 11.9266C9.412 11.9546 9.38 11.9786 9.36 11.9786C9.34 11.9786 9.268 12.0266 9.204 12.0866C8.92 12.3506 8.788 12.4586 8.748 12.4586C8.724 12.4586 8.716 12.4706 8.728 12.4826C8.74 12.4946 8.676 12.5786 8.584 12.6746C8.156 13.1146 7.82 13.6706 7.772 14.0066C7.76 14.0986 7.732 14.1666 7.716 14.1546C7.668 14.1266 7.668 14.9986 7.716 15.0906C7.732 15.1266 7.784 15.2306 7.824 15.3186C7.908 15.4986 8.252 15.8586 8.34 15.8586C8.372 15.8586 8.4 15.8746 8.4 15.8946C8.4 15.9146 8.46 15.9466 8.532 15.9586C8.6 15.9746 8.672 16.0106 8.688 16.0346C8.728 16.0946 10.192 16.0946 10.232 16.0306C10.248 16.0066 10.364 15.9746 10.492 15.9586C10.616 15.9426 10.72 15.9146 10.72 15.8986C10.72 15.8786 10.82 15.8506 10.94 15.8386C11.06 15.8226 11.16 15.7946 11.16 15.7786C11.16 15.7586 11.276 15.7306 11.42 15.7186C11.564 15.7026 11.68 15.6746 11.68 15.6546C11.68 15.6386 11.808 15.6106 11.96 15.5946C12.116 15.5826 12.24 15.5546 12.24 15.5386C12.24 15.5186 12.416 15.4946 12.632 15.4786C12.844 15.4626 13.032 15.4266 13.048 15.4026C13.088 15.3426 15.392 15.3386 15.432 15.4026C15.448 15.4266 15.584 15.4586 15.74 15.4746C15.892 15.4906 16.028 15.5186 16.04 15.5346C16.052 15.5546 16.144 15.5786 16.248 15.5946C16.352 15.6106 16.448 15.6386 16.46 15.6586C16.472 15.6746 16.552 15.7026 16.64 15.7186C16.728 15.7346 16.8 15.7586 16.8 15.7786C16.8 15.7946 16.864 15.8226 16.94 15.8346C17.016 15.8506 17.08 15.8786 17.08 15.8986C17.08 15.9146 17.136 15.9426 17.2 15.9586C17.268 15.9746 17.32 16.0026 17.32 16.0226C17.32 16.0426 17.344 16.0586 17.372 16.0586C17.404 16.0586 17.464 16.0906 17.504 16.1266C17.576 16.1946 17.58 16.2746 17.576 17.8186C17.576 18.7106 17.584 19.3226 17.6 19.1786C17.62 18.9866 17.628 19.0906 17.632 19.5666C17.636 19.9266 17.632 20.2186 17.628 20.2186C17.62 20.2186 17.576 20.1866 17.528 20.1466C17.484 20.1106 17.408 20.0506 17.36 20.0186C17.312 19.9866 17.232 19.9266 17.188 19.8906C17.052 19.7826 17.036 19.7706 16.78 19.5986C16.648 19.5106 16.52 19.4226 16.496 19.3986C16.472 19.3786 16.408 19.3306 16.36 19.2986C16.312 19.2666 16.24 19.2106 16.2 19.1786C16.16 19.1466 16.088 19.0906 16.04 19.0586C15.992 19.0266 15.928 18.9746 15.896 18.9466C15.868 18.9226 15.832 18.8986 15.812 18.8986C15.796 18.8986 15.724 18.8466 15.656 18.7866C15.584 18.7266 15.488 18.6506 15.44 18.6186C15.392 18.5866 15.32 18.5306 15.28 18.4986C15.24 18.4666 15.168 18.4106 15.12 18.3786C15.072 18.3466 15.008 18.2986 14.984 18.2746C14.96 18.2546 14.908 18.2226 14.872 18.2066C14.832 18.1946 14.8 18.1626 14.8 18.1386C14.8 18.1186 14.776 18.0986 14.744 18.0986C14.716 18.0986 14.628 18.0466 14.556 17.9786C14.48 17.9146 14.408 17.8586 14.396 17.8586C14.384 17.8586 14.336 17.8266 14.288 17.7866C14.244 17.7506 14.168 17.6906 14.12 17.6586C14.036 17.6026 13.92 17.5106 13.812 17.4186C13.784 17.3986 13.744 17.3786 13.724 17.3786C13.7 17.3786 13.668 17.3546 13.652 17.3266C13.612 17.2666 13.38 17.1506 13.22 17.1146C13.156 17.0986 13.084 17.0746 13.06 17.0586C12.94 16.9706 12.508 16.9506 11.74 17.0026C10.66 17.0746 9.828 17.1546 9.78 17.1826C9.76 17.1986 9.584 17.2226 9.388 17.2386C9.196 17.2546 9.028 17.2826 9.02 17.2986C9.008 17.3186 8.864 17.3426 8.7 17.3586C8.536 17.3746 8.4 17.4026 8.4 17.4186C8.4 17.4386 8.264 17.4626 8.1 17.4786C7.936 17.4946 7.8 17.5226 7.8 17.5386C7.8 17.5546 7.728 17.5786 7.64 17.5906C7.552 17.6026 7.456 17.6346 7.424 17.6666C7.396 17.6946 7.332 17.7426 7.288 17.7746C7.24 17.8106 7.192 17.8986 7.176 17.9946C7.164 18.0866 7.128 18.1706 7.104 18.1866C7.036 18.2306 7.044 19.6666 7.112 19.6906C7.136 19.6986 7.16 19.7546 7.16 19.8186C7.16 19.9306 7.22 19.9786 7.36 19.9786C7.4 19.9786 7.44 19.9986 7.448 20.0226C7.468 20.0786 8.428 20.0786 8.492 20.0226C8.52 20.0026 8.804 19.9746 9.132 19.9586C9.456 19.9426 9.72 19.9146 9.72 19.8986C9.72 19.8826 10.012 19.8546 10.372 19.8386C10.728 19.8226 11.028 19.7946 11.04 19.7786C11.052 19.7586 11.372 19.7346 11.752 19.7186C12.128 19.7026 12.44 19.6706 12.44 19.6546C12.44 19.6026 13.072 19.6106 13.132 19.6586C13.24 19.7506 13.356 19.8426 13.44 19.8986C13.488 19.9306 13.56 19.9866 13.6 20.0186C13.64 20.0506 13.712 20.1066 13.76 20.1386C13.812 20.1706 13.964 20.2786 14.1 20.3786C14.24 20.4786 14.392 20.5866 14.44 20.6186C14.528 20.6786 14.704 20.8226 14.852 20.9506C14.896 20.9866 14.956 21.0186 14.988 21.0186C15.02 21.0186 15.032 21.0346 15.02 21.0586C15.008 21.0786 15.024 21.0986 15.06 21.0986C15.092 21.0986 15.132 21.1266 15.144 21.1586C15.16 21.1906 15.192 21.2186 15.22 21.2186C15.244 21.2186 15.304 21.2506 15.352 21.2866C15.396 21.3266 15.472 21.3866 15.52 21.4186C15.596 21.4706 15.684 21.5386 15.82 21.6506C15.844 21.6666 15.892 21.6946 15.932 21.7106C15.968 21.7226 16 21.7546 16 21.7786C16 21.7986 16.02 21.8186 16.04 21.8186C16.064 21.8186 16.196 21.9026 16.336 22.0066C16.476 22.1146 16.632 22.2266 16.68 22.2586C16.728 22.2906 16.824 22.3666 16.896 22.4266C16.964 22.4866 17.052 22.5466 17.092 22.5626C17.128 22.5746 17.16 22.6026 17.16 22.6226C17.16 22.6426 17.184 22.6586 17.212 22.6586C17.236 22.6586 17.324 22.7146 17.4 22.7786C17.476 22.8426 17.564 22.9186 17.592 22.9386C17.628 22.9706 17.64 23.2426 17.64 24.0386V25.0986H17.504C17.428 25.0986 17.352 25.0786 17.34 25.0586C17.328 25.0346 17.272 25.0186 17.216 25.0186C17.108 25.0186 16.56 24.7826 16.56 24.7346C16.56 24.7186 16.516 24.6946 16.46 24.6826C16.404 24.6666 16.36 24.6386 16.36 24.6186C16.36 24.5946 16.336 24.5786 16.308 24.5786C16.276 24.5786 16.216 24.5466 16.168 24.5066C16.124 24.4706 16.048 24.4106 16 24.3786C15.904 24.3146 15.816 24.2426 15.604 24.0706C15.464 23.9546 14.92 23.4146 14.396 22.8746C14.228 22.6986 14.052 22.5306 14.004 22.4986C13.952 22.4666 13.876 22.4066 13.832 22.3706C13.784 22.3306 13.724 22.2986 13.692 22.2986C13.66 22.2986 13.644 22.2826 13.656 22.2626C13.672 22.2426 13.628 22.2146 13.56 22.1986C13.496 22.1826 13.44 22.1546 13.44 22.1346C13.44 22.1146 13.416 22.0986 13.384 22.0986C13.352 22.0986 13.3 22.0746 13.272 22.0426C13.24 22.0146 13.156 21.9746 13.088 21.9586C13.016 21.9466 12.96 21.9186 12.96 21.8986C12.96 21.8826 12.896 21.8546 12.82 21.8426C12.744 21.8266 12.68 21.7986 12.68 21.7826C12.68 21.7626 12.6 21.7346 12.5 21.7226C12.4 21.7066 12.32 21.6786 12.32 21.6586C12.32 21.6426 12.212 21.6146 12.08 21.5986C11.948 21.5826 11.84 21.5586 11.84 21.5386C11.84 21.4546 10.044 21.3346 9.948 21.4106C9.92 21.4306 9.744 21.4626 9.552 21.4786C9.356 21.4946 9.2 21.5186 9.2 21.5386C9.2 21.5546 9.112 21.5826 9 21.5986C8.892 21.6146 8.8 21.6426 8.8 21.6626C8.8 21.6826 8.768 21.6986 8.728 21.6986C8.692 21.6986 8.592 21.7346 8.508 21.7786C8.428 21.8226 8.332 21.8586 8.3 21.8586C8.268 21.8586 8.24 21.8746 8.24 21.8946C8.24 21.9146 8.2 21.9466 8.152 21.9626C8.104 21.9746 8.048 22.0026 8.024 22.0226C7.828 22.1866 7.784 22.2186 7.752 22.2186C7.732 22.2186 7.724 22.2346 7.74 22.2546C7.752 22.2746 7.724 22.3026 7.68 22.3186C7.636 22.3306 7.6 22.3546 7.6 22.3706C7.6 22.3866 7.536 22.4706 7.46 22.5546C7.384 22.6426 7.312 22.7466 7.296 22.7866C7.284 22.8266 7.256 22.8586 7.236 22.8586C7.216 22.8586 7.2 22.8786 7.2 22.9026C7.2 22.9226 7.16 23.0266 7.112 23.1306C7.04 23.2866 7.024 23.4146 7.008 23.8946C6.992 24.4506 7.048 25.1026 7.12 25.1986C7.14 25.2186 7.164 25.3426 7.18 25.4666C7.196 25.5946 7.224 25.6986 7.24 25.6986C7.26 25.6986 7.284 25.7866 7.3 25.8986C7.316 26.0066 7.34 26.0986 7.36 26.0986C7.376 26.0986 7.404 26.1786 7.416 26.2786C7.432 26.3786 7.46 26.4586 7.476 26.4586C7.496 26.4586 7.52 26.5306 7.536 26.6186C7.548 26.7066 7.576 26.7786 7.596 26.7786C7.616 26.7786 7.644 26.8506 7.66 26.9386C7.676 27.0266 7.704 27.0986 7.724 27.0986C7.744 27.0986 7.76 27.1346 7.76 27.1786C7.76 27.2226 7.776 27.2586 7.8 27.2586C7.82 27.2586 7.828 27.2866 7.816 27.3186C7.8 27.3506 7.812 27.3786 7.836 27.3786C7.86 27.3786 7.88 27.4066 7.88 27.4386C7.88 27.4706 7.896 27.4986 7.92 27.4986C7.94 27.4986 7.956 27.5106 7.952 27.5266C7.944 27.5586 8.12 27.9386 8.16 27.9786C8.172 27.9906 8.224 28.0866 8.28 28.1986C8.336 28.3066 8.404 28.4146 8.432 28.4306C8.456 28.4466 8.48 28.4906 8.48 28.5186C8.48 28.5506 8.496 28.5786 8.52 28.5786C8.54 28.5786 8.568 28.6226 8.584 28.6746C8.596 28.7306 8.632 28.7826 8.664 28.7946C8.696 28.8066 8.72 28.8386 8.72 28.8666C8.72 28.8946 8.764 28.9666 8.82 29.0266C8.876 29.0866 8.92 29.1426 8.92 29.1546C8.92 29.2506 10.124 30.4226 10.356 30.5546C10.392 30.5746 10.44 30.6106 10.468 30.6346C10.596 30.7506 10.64 30.7786 10.668 30.7786C10.688 30.7786 10.748 30.8226 10.804 30.8746C10.86 30.9266 10.944 30.9826 10.992 30.9946C11.04 31.0106 11.08 31.0386 11.08 31.0586C11.08 31.0746 11.124 31.1026 11.18 31.1146C11.236 31.1306 11.28 31.1546 11.28 31.1746C11.28 31.1946 11.336 31.2226 11.4 31.2386C11.468 31.2546 11.52 31.2786 11.52 31.2986C11.52 31.3186 11.576 31.3426 11.64 31.3586C11.708 31.3746 11.76 31.3986 11.76 31.4186C11.76 31.4346 11.824 31.4626 11.9 31.4746C11.976 31.4906 12.04 31.5186 12.04 31.5346C12.04 31.5546 12.104 31.5826 12.18 31.5946C12.256 31.6106 12.32 31.6386 12.32 31.6586C12.32 31.6746 12.392 31.7026 12.48 31.7186C12.568 31.7346 12.64 31.7586 12.64 31.7786C12.64 31.7946 12.72 31.8226 12.82 31.8346C12.92 31.8506 13 31.8786 13 31.8986C13 31.9146 13.088 31.9426 13.2 31.9586C13.308 31.9746 13.408 32.0026 13.42 32.0186C13.432 32.0346 13.548 32.0626 13.68 32.0786C13.812 32.0946 13.92 32.1226 13.92 32.1386C13.92 32.1546 14.064 32.1826 14.24 32.1986C14.416 32.2146 14.56 32.2426 14.56 32.2586C14.56 32.2746 14.772 32.3026 15.032 32.3186C15.288 32.3346 15.52 32.3626 15.54 32.3786C15.564 32.3946 15.872 32.4186 16.228 32.4266C16.584 32.4386 16.9 32.4626 16.928 32.4866C16.956 32.5106 17.028 32.5386 17.088 32.5546C17.228 32.5866 17.512 32.8706 17.54 33.0106C17.556 33.0706 17.58 33.1506 17.604 33.1866C17.648 33.2746 17.652 33.5906 17.604 33.5626C17.588 33.5506 17.56 33.6306 17.548 33.7426C17.532 33.8546 17.508 33.9666 17.488 33.9946C17.464 34.0186 17.436 34.0986 17.42 34.1666C17.408 34.2386 17.38 34.2986 17.36 34.2986C17.34 34.2986 17.316 34.3506 17.3 34.4186C17.284 34.4826 17.26 34.5386 17.24 34.5386C17.22 34.5386 17.196 34.5906 17.18 34.6586C17.164 34.7226 17.14 34.7786 17.12 34.7786C17.1 34.7786 17.072 34.8186 17.056 34.8666C17.04 34.9186 17.02 34.9666 17.004 34.9786C16.972 35.0066 16.892 35.1346 16.832 35.2586C16.804 35.3146 16.76 35.3826 16.732 35.4106C16.704 35.4386 16.68 35.4826 16.68 35.5026C16.68 35.5266 16.656 35.5706 16.632 35.5986C16.516 35.7266 16.488 35.7706 16.46 35.8626C16.444 35.9146 16.408 35.9706 16.388 35.9866C16.364 36.0026 16.336 36.1386 16.328 36.2946C16.312 36.5546 16.316 36.5786 16.42 36.6666C16.612 36.8346 16.812 36.8586 18.172 36.8586H19.44V33.1586V29.4546L18.952 29.4826C18.68 29.4986 18.444 29.5226 18.424 29.5426C18.372 29.5906 16.372 29.5906 16.344 29.5466C16.332 29.5266 16.12 29.4986 15.872 29.4826C15.624 29.4666 15.412 29.4426 15.4 29.4226C15.388 29.4066 15.256 29.3786 15.1 29.3626C14.948 29.3466 14.812 29.3186 14.8 29.3026C14.788 29.2826 14.684 29.2546 14.572 29.2386C14.456 29.2226 14.352 29.1946 14.34 29.1786C14.328 29.1586 14.248 29.1346 14.16 29.1186C14.072 29.1026 13.992 29.0786 13.98 29.0586C13.968 29.0426 13.896 29.0146 13.82 29.0026C13.744 28.9866 13.68 28.9586 13.68 28.9426C13.68 28.9226 13.616 28.8946 13.54 28.8826C13.464 28.8666 13.4 28.8426 13.4 28.8266C13.4 28.8066 13.32 28.7626 13.22 28.7226C13.12 28.6786 13.04 28.6346 13.04 28.6186C13.04 28.6026 12.996 28.5746 12.94 28.5626C12.884 28.5466 12.84 28.5186 12.84 28.4986C12.84 28.4746 12.816 28.4586 12.788 28.4586C12.756 28.4586 12.696 28.4266 12.648 28.3866C12.536 28.2946 12.424 28.2106 12.316 28.1386C12.184 28.0506 11.596 27.4546 11.48 27.2946C11.38 27.1546 11.372 27.1466 11.24 26.9826C11.196 26.9306 11.16 26.8626 11.16 26.8306C11.16 26.8026 11.144 26.7786 11.124 26.7786C11.104 26.7786 11.072 26.7386 11.056 26.6866C11.04 26.6386 11.02 26.5906 11.004 26.5786C10.96 26.5426 10.8 26.1906 10.8 26.1266C10.8 26.0946 10.78 26.0586 10.752 26.0506C10.696 26.0306 10.656 25.3786 10.696 25.1666C10.724 25.0146 10.884 24.8266 11.056 24.7386C11.184 24.6706 11.648 24.6666 11.732 24.7266C11.756 24.7506 11.824 24.7786 11.88 24.7906C11.936 24.8066 12.036 24.8626 12.1 24.9146C12.404 25.1666 12.504 25.2586 12.784 25.5266C12.948 25.6866 13.096 25.8186 13.112 25.8186C13.128 25.8186 13.172 25.8506 13.204 25.8866C13.24 25.9266 13.308 25.9866 13.36 26.0186C13.408 26.0506 13.472 26.0986 13.496 26.1226C13.524 26.1466 13.584 26.1826 13.632 26.1946C13.68 26.2106 13.72 26.2386 13.72 26.2506C13.72 26.2666 13.804 26.3266 13.912 26.3786C14.016 26.4346 14.108 26.4866 14.12 26.4986C14.132 26.5106 14.232 26.5586 14.34 26.6106C14.452 26.6626 14.568 26.7186 14.6 26.7346C14.636 26.7546 14.72 26.7826 14.792 26.7946C14.86 26.8106 14.928 26.8426 14.94 26.8626C14.956 26.8826 15.008 26.8986 15.064 26.8986C15.116 26.8986 15.16 26.9146 15.16 26.9346C15.16 26.9546 15.252 26.9826 15.36 26.9986C15.472 27.0146 15.56 27.0386 15.56 27.0586C15.56 27.0746 15.692 27.1026 15.852 27.1186C16.008 27.1346 16.148 27.1626 16.16 27.1826C16.172 27.2026 16.484 27.2266 16.852 27.2426C17.216 27.2586 17.508 27.2866 17.496 27.3066C17.484 27.3226 17.676 27.3386 17.92 27.3386C18.208 27.3386 18.356 27.3226 18.34 27.2986C18.324 27.2746 18.492 27.2586 18.816 27.2586C19.088 27.2586 19.34 27.2466 19.376 27.2346C19.436 27.2106 19.44 26.4786 19.44 19.3386C19.44 11.9026 19.436 11.4666 19.372 11.3866C19.22 11.2066 19.16 11.1226 19.16 11.0866C19.16 11.0706 19.12 11.0146 19.068 10.9666C19.016 10.9186 18.932 10.8146 18.88 10.7386C18.824 10.6626 18.74 10.5586 18.692 10.5146C18.64 10.4666 18.6 10.4186 18.6 10.4066C18.6 10.3706 18.192 9.97464 18.08 9.89864C18.032 9.86664 17.932 9.78264 17.856 9.71864C17.668 9.54664 17.64 9.52664 17.46 9.41864C17.372 9.36664 17.292 9.31064 17.28 9.29464C17.268 9.28264 17.22 9.25864 17.172 9.24264C17.12 9.22664 17.08 9.19864 17.08 9.17864C17.08 9.15864 17.028 9.13464 16.96 9.11864C16.896 9.10264 16.84 9.07864 16.84 9.05864C16.84 9.04264 16.8 9.01864 16.752 9.00664C16.7 8.99464 16.536 8.93864 16.38 8.87864C16.12 8.77464 16.048 8.76664 15.42 8.75864C15.048 8.75064 14.696 8.75464 14.64 8.76664ZM15.592 11.1666C15.608 11.1906 15.68 11.2226 15.752 11.2386C15.82 11.2506 15.88 11.2826 15.88 11.3026C15.88 11.3226 15.904 11.3386 15.932 11.3386C15.964 11.3386 16.024 11.3706 16.072 11.4066C16.116 11.4466 16.192 11.5066 16.244 11.5386C16.364 11.6186 16.708 11.9626 16.88 12.1746C16.956 12.2706 17.048 12.3786 17.08 12.4186C17.164 12.5146 17.232 12.6226 17.284 12.7386C17.304 12.7906 17.336 12.8466 17.352 12.8586C17.368 12.8706 17.448 13.0146 17.528 13.1786L17.68 13.4786L17.688 14.1866C17.7 14.9786 17.724 14.9306 17.436 14.6586C17.376 14.6026 17.288 14.5306 17.24 14.4986C17.192 14.4666 17.116 14.4066 17.072 14.3666C17.024 14.3306 16.964 14.2986 16.932 14.2986C16.9 14.2986 16.884 14.2826 16.896 14.2626C16.908 14.2426 16.876 14.2146 16.82 14.2026C16.764 14.1866 16.72 14.1626 16.72 14.1426C16.72 14.1226 16.668 14.0946 16.6 14.0786C16.536 14.0626 16.48 14.0386 16.48 14.0186C16.48 14.0026 16.416 13.9746 16.34 13.9626C16.264 13.9466 16.2 13.9186 16.2 13.8986C16.2 13.8826 16.128 13.8546 16.04 13.8386C15.952 13.8226 15.88 13.7986 15.88 13.7786C15.88 13.7626 15.776 13.7346 15.652 13.7186C15.524 13.7026 15.396 13.6706 15.368 13.6466C15.3 13.5946 13.84 13.5946 13.804 13.6506C13.792 13.6746 13.66 13.7026 13.508 13.7186C13.36 13.7346 13.232 13.7626 13.22 13.7786C13.208 13.7986 13.108 13.8226 13 13.8386C12.892 13.8546 12.792 13.8826 12.78 13.8986C12.768 13.9186 12.676 13.9466 12.58 13.9626C12.48 13.9746 12.4 14.0026 12.4 14.0226C12.4 14.0386 12.32 14.0666 12.22 14.0826C12.12 14.0946 12.04 14.1226 12.04 14.1386C12.04 14.1586 11.968 14.1826 11.88 14.1986C11.792 14.2146 11.72 14.2386 11.72 14.2586C11.72 14.2746 11.628 14.3026 11.52 14.3186C11.408 14.3346 11.328 14.3626 11.34 14.3786C11.352 14.3986 11.26 14.4266 11.14 14.4386C11.02 14.4546 10.92 14.4826 10.92 14.4986C10.92 14.5426 10.436 14.5826 10.288 14.5546C10.148 14.5266 10.076 14.3786 10.156 14.2826C10.18 14.2546 10.188 14.2186 10.172 14.2066C10.16 14.1906 10.168 14.1786 10.192 14.1786C10.22 14.1786 10.24 14.1546 10.24 14.1266C10.24 13.9986 11.128 13.0986 11.252 13.0986C11.268 13.0986 11.272 13.0786 11.26 13.0586C11.248 13.0346 11.252 13.0186 11.272 13.0186C11.292 13.0186 11.344 12.9866 11.388 12.9466C11.54 12.8146 11.712 12.6786 11.8 12.6186C11.848 12.5866 11.968 12.4986 12.064 12.4266C12.156 12.3586 12.248 12.2986 12.26 12.2986C12.284 12.2986 12.336 12.2586 12.46 12.1466C12.488 12.1226 12.532 12.0986 12.552 12.0986C12.572 12.0986 12.628 12.0626 12.68 12.0186C12.732 11.9746 12.796 11.9386 12.828 11.9386C12.856 11.9386 12.88 11.9226 12.88 11.9026C12.88 11.8826 12.92 11.8506 12.968 11.8346C13.016 11.8226 13.08 11.7826 13.112 11.7546C13.14 11.7226 13.192 11.6986 13.224 11.6986C13.256 11.6986 13.28 11.6826 13.28 11.6626C13.28 11.6426 13.336 11.6146 13.4 11.5986C13.468 11.5826 13.52 11.5586 13.52 11.5386C13.52 11.5186 13.576 11.4946 13.64 11.4786C13.708 11.4626 13.76 11.4386 13.76 11.4186C13.76 11.3986 13.816 11.3746 13.88 11.3586C13.948 11.3426 14 11.3146 14 11.2986C14 11.2786 14.064 11.2506 14.14 11.2346C14.216 11.2226 14.28 11.1946 14.28 11.1786C14.28 11.1226 14.472 11.1066 15.032 11.1146C15.368 11.1186 15.576 11.1386 15.592 11.1666Z" fill="white"/>
</g>
</g>
</svg>
